<mxfile host="app.diagrams.net" modified="2023-03-28T08:24:38.350Z" agent="5.0 (Macintosh; Intel Mac OS X 10_15_7) AppleWebKit/537.36 (KHTML, like Gecko) Chrome/109.0.0.0 Safari/537.36" etag="kh0hpg2tz2mn8my4pS4O" version="21.0.10" type="github">
  <diagram name="第 1 页" id="UmcjrFbR8Bty-J6lGjOk">
    <mxGraphModel dx="1434" dy="796" grid="1" gridSize="10" guides="1" tooltips="1" connect="1" arrows="1" fold="1" page="1" pageScale="1" pageWidth="827" pageHeight="1169" math="0" shadow="0">
      <root>
        <mxCell id="0" />
        <mxCell id="1" parent="0" />
        <mxCell id="2g9oOstZCMVQEJnpLDly-1" value="IpbsServiceImpl.ibpsOutwardCrtran" style="rounded=0;whiteSpace=wrap;html=1;" vertex="1" parent="1">
          <mxGeometry x="80" y="60" width="210" height="60" as="geometry" />
        </mxCell>
        <mxCell id="2g9oOstZCMVQEJnpLDly-5" style="edgeStyle=orthogonalEdgeStyle;rounded=0;orthogonalLoop=1;jettySize=auto;html=1;" edge="1" parent="1" source="2g9oOstZCMVQEJnpLDly-4" target="2g9oOstZCMVQEJnpLDly-6">
          <mxGeometry relative="1" as="geometry">
            <mxPoint x="170" y="250" as="targetPoint" />
          </mxGeometry>
        </mxCell>
        <mxCell id="2g9oOstZCMVQEJnpLDly-4" value="" style="ellipse;whiteSpace=wrap;html=1;aspect=fixed;" vertex="1" parent="1">
          <mxGeometry x="140" y="150" width="60" height="60" as="geometry" />
        </mxCell>
        <mxCell id="2g9oOstZCMVQEJnpLDly-9" style="edgeStyle=orthogonalEdgeStyle;rounded=0;orthogonalLoop=1;jettySize=auto;html=1;" edge="1" parent="1" source="2g9oOstZCMVQEJnpLDly-6" target="2g9oOstZCMVQEJnpLDly-8">
          <mxGeometry relative="1" as="geometry" />
        </mxCell>
        <mxCell id="2g9oOstZCMVQEJnpLDly-6" value="必要的业务参数校验" style="rounded=0;whiteSpace=wrap;html=1;" vertex="1" parent="1">
          <mxGeometry x="110" y="270" width="120" height="60" as="geometry" />
        </mxCell>
        <mxCell id="2g9oOstZCMVQEJnpLDly-7" value="1.收付款户名不能为空&lt;br&gt;2.收款人清算行号不能为空 kipb_bank_info&lt;br&gt;3.限额校验:金额不超过100万" style="text;html=1;strokeColor=none;fillColor=none;align=center;verticalAlign=middle;whiteSpace=wrap;rounded=0;" vertex="1" parent="1">
          <mxGeometry x="300" y="285" width="250" height="30" as="geometry" />
        </mxCell>
        <mxCell id="2g9oOstZCMVQEJnpLDly-12" style="edgeStyle=orthogonalEdgeStyle;rounded=0;orthogonalLoop=1;jettySize=auto;html=1;" edge="1" parent="1" source="2g9oOstZCMVQEJnpLDly-8" target="2g9oOstZCMVQEJnpLDly-11">
          <mxGeometry relative="1" as="geometry" />
        </mxCell>
        <mxCell id="2g9oOstZCMVQEJnpLDly-8" value="验证我行超网渠道状态是否为成功状态(10)" style="rounded=0;whiteSpace=wrap;html=1;" vertex="1" parent="1">
          <mxGeometry x="110" y="390" width="120" height="60" as="geometry" />
        </mxCell>
        <mxCell id="2g9oOstZCMVQEJnpLDly-10" value="异常:系统当前状态不允许做交易&lt;br&gt;表kccp_cncc_status" style="text;html=1;strokeColor=none;fillColor=none;align=center;verticalAlign=middle;whiteSpace=wrap;rounded=0;" vertex="1" parent="1">
          <mxGeometry x="354" y="410" width="226" height="30" as="geometry" />
        </mxCell>
        <mxCell id="2g9oOstZCMVQEJnpLDly-14" style="edgeStyle=orthogonalEdgeStyle;rounded=0;orthogonalLoop=1;jettySize=auto;html=1;" edge="1" parent="1" source="2g9oOstZCMVQEJnpLDly-11" target="2g9oOstZCMVQEJnpLDly-13">
          <mxGeometry relative="1" as="geometry" />
        </mxCell>
        <mxCell id="2g9oOstZCMVQEJnpLDly-11" value="蜜罐密码加密处理" style="rounded=0;whiteSpace=wrap;html=1;" vertex="1" parent="1">
          <mxGeometry x="110" y="510" width="120" height="60" as="geometry" />
        </mxCell>
        <mxCell id="2g9oOstZCMVQEJnpLDly-17" style="edgeStyle=orthogonalEdgeStyle;rounded=0;orthogonalLoop=1;jettySize=auto;html=1;" edge="1" parent="1" source="2g9oOstZCMVQEJnpLDly-13" target="2g9oOstZCMVQEJnpLDly-21">
          <mxGeometry relative="1" as="geometry">
            <mxPoint x="170" y="720" as="targetPoint" />
          </mxGeometry>
        </mxCell>
        <mxCell id="2g9oOstZCMVQEJnpLDly-13" value="贷记往账交易流水表登记" style="rounded=0;whiteSpace=wrap;html=1;" vertex="1" parent="1">
          <mxGeometry x="110" y="620" width="120" height="60" as="geometry" />
        </mxCell>
        <mxCell id="2g9oOstZCMVQEJnpLDly-15" value="kibs_outward_crtran" style="text;html=1;strokeColor=none;fillColor=none;align=center;verticalAlign=middle;whiteSpace=wrap;rounded=0;" vertex="1" parent="1">
          <mxGeometry x="260" y="635" width="110" height="30" as="geometry" />
        </mxCell>
        <mxCell id="2g9oOstZCMVQEJnpLDly-23" style="edgeStyle=orthogonalEdgeStyle;rounded=0;orthogonalLoop=1;jettySize=auto;html=1;" edge="1" parent="1" source="2g9oOstZCMVQEJnpLDly-21" target="2g9oOstZCMVQEJnpLDly-22">
          <mxGeometry relative="1" as="geometry" />
        </mxCell>
        <mxCell id="2g9oOstZCMVQEJnpLDly-21" value="外调核心服务s0041300" style="rounded=1;whiteSpace=wrap;html=1;" vertex="1" parent="1">
          <mxGeometry x="110" y="740" width="120" height="60" as="geometry" />
        </mxCell>
        <mxCell id="2g9oOstZCMVQEJnpLDly-25" value="异常" style="edgeStyle=orthogonalEdgeStyle;rounded=0;orthogonalLoop=1;jettySize=auto;html=1;" edge="1" parent="1" source="2g9oOstZCMVQEJnpLDly-22" target="2g9oOstZCMVQEJnpLDly-24">
          <mxGeometry relative="1" as="geometry" />
        </mxCell>
        <mxCell id="2g9oOstZCMVQEJnpLDly-33" style="edgeStyle=orthogonalEdgeStyle;rounded=0;orthogonalLoop=1;jettySize=auto;html=1;" edge="1" parent="1" source="2g9oOstZCMVQEJnpLDly-22" target="2g9oOstZCMVQEJnpLDly-32">
          <mxGeometry relative="1" as="geometry" />
        </mxCell>
        <mxCell id="2g9oOstZCMVQEJnpLDly-37" value="正常" style="edgeLabel;html=1;align=center;verticalAlign=middle;resizable=0;points=[];" vertex="1" connectable="0" parent="2g9oOstZCMVQEJnpLDly-33">
          <mxGeometry x="-0.175" y="-3" relative="1" as="geometry">
            <mxPoint as="offset" />
          </mxGeometry>
        </mxCell>
        <mxCell id="2g9oOstZCMVQEJnpLDly-22" value="外调核心记账&lt;br style=&quot;border-color: var(--border-color);&quot;&gt;成功?" style="rhombus;whiteSpace=wrap;html=1;" vertex="1" parent="1">
          <mxGeometry x="130" y="830" width="80" height="80" as="geometry" />
        </mxCell>
        <mxCell id="2g9oOstZCMVQEJnpLDly-27" value="是" style="edgeStyle=orthogonalEdgeStyle;rounded=0;orthogonalLoop=1;jettySize=auto;html=1;" edge="1" parent="1" source="2g9oOstZCMVQEJnpLDly-24" target="2g9oOstZCMVQEJnpLDly-26">
          <mxGeometry relative="1" as="geometry" />
        </mxCell>
        <mxCell id="2g9oOstZCMVQEJnpLDly-31" style="edgeStyle=orthogonalEdgeStyle;rounded=0;orthogonalLoop=1;jettySize=auto;html=1;entryX=0;entryY=0.75;entryDx=0;entryDy=0;" edge="1" parent="1" source="2g9oOstZCMVQEJnpLDly-24" target="2g9oOstZCMVQEJnpLDly-28">
          <mxGeometry relative="1" as="geometry">
            <Array as="points">
              <mxPoint x="314" y="985" />
            </Array>
          </mxGeometry>
        </mxCell>
        <mxCell id="2g9oOstZCMVQEJnpLDly-24" value="外调核心记账&lt;br&gt;超时?" style="rhombus;whiteSpace=wrap;html=1;" vertex="1" parent="1">
          <mxGeometry x="274" y="830" width="86" height="90" as="geometry" />
        </mxCell>
        <mxCell id="2g9oOstZCMVQEJnpLDly-29" style="edgeStyle=orthogonalEdgeStyle;rounded=0;orthogonalLoop=1;jettySize=auto;html=1;" edge="1" parent="1" source="2g9oOstZCMVQEJnpLDly-26" target="2g9oOstZCMVQEJnpLDly-28">
          <mxGeometry relative="1" as="geometry" />
        </mxCell>
        <mxCell id="2g9oOstZCMVQEJnpLDly-26" value="外调核心冲正服务s0049999" style="rounded=1;whiteSpace=wrap;html=1;" vertex="1" parent="1">
          <mxGeometry x="430" y="845" width="120" height="60" as="geometry" />
        </mxCell>
        <mxCell id="2g9oOstZCMVQEJnpLDly-28" value="抛出异常" style="rounded=1;whiteSpace=wrap;html=1;" vertex="1" parent="1">
          <mxGeometry x="570" y="940" width="120" height="60" as="geometry" />
        </mxCell>
        <mxCell id="2g9oOstZCMVQEJnpLDly-35" style="edgeStyle=orthogonalEdgeStyle;rounded=0;orthogonalLoop=1;jettySize=auto;html=1;" edge="1" parent="1" source="2g9oOstZCMVQEJnpLDly-32" target="2g9oOstZCMVQEJnpLDly-34">
          <mxGeometry relative="1" as="geometry" />
        </mxCell>
        <mxCell id="2g9oOstZCMVQEJnpLDly-32" value="外调超网贷记服务&lt;br&gt;s0030412" style="rounded=1;whiteSpace=wrap;html=1;" vertex="1" parent="1">
          <mxGeometry x="110" y="990" width="120" height="60" as="geometry" />
        </mxCell>
        <mxCell id="2g9oOstZCMVQEJnpLDly-38" style="edgeStyle=orthogonalEdgeStyle;rounded=0;orthogonalLoop=1;jettySize=auto;html=1;entryX=0;entryY=0.5;entryDx=0;entryDy=0;" edge="1" parent="1" source="2g9oOstZCMVQEJnpLDly-34" target="2g9oOstZCMVQEJnpLDly-36">
          <mxGeometry relative="1" as="geometry" />
        </mxCell>
        <mxCell id="2g9oOstZCMVQEJnpLDly-39" value="异常" style="edgeLabel;html=1;align=center;verticalAlign=middle;resizable=0;points=[];" vertex="1" connectable="0" parent="2g9oOstZCMVQEJnpLDly-38">
          <mxGeometry x="-0.2923" relative="1" as="geometry">
            <mxPoint as="offset" />
          </mxGeometry>
        </mxCell>
        <mxCell id="2g9oOstZCMVQEJnpLDly-34" value="外调超网贷记服务异常?" style="rhombus;whiteSpace=wrap;html=1;" vertex="1" parent="1">
          <mxGeometry x="130" y="1100" width="80" height="80" as="geometry" />
        </mxCell>
        <mxCell id="2g9oOstZCMVQEJnpLDly-41" style="edgeStyle=orthogonalEdgeStyle;rounded=0;orthogonalLoop=1;jettySize=auto;html=1;entryX=0;entryY=0.5;entryDx=0;entryDy=0;" edge="1" parent="1" source="2g9oOstZCMVQEJnpLDly-36" target="2g9oOstZCMVQEJnpLDly-40">
          <mxGeometry relative="1" as="geometry" />
        </mxCell>
        <mxCell id="2g9oOstZCMVQEJnpLDly-36" value="超时异常?" style="rhombus;whiteSpace=wrap;html=1;" vertex="1" parent="1">
          <mxGeometry x="275" y="1100" width="80" height="80" as="geometry" />
        </mxCell>
        <mxCell id="2g9oOstZCMVQEJnpLDly-43" style="edgeStyle=orthogonalEdgeStyle;rounded=0;orthogonalLoop=1;jettySize=auto;html=1;" edge="1" parent="1" source="2g9oOstZCMVQEJnpLDly-40" target="2g9oOstZCMVQEJnpLDly-42">
          <mxGeometry relative="1" as="geometry" />
        </mxCell>
        <mxCell id="2g9oOstZCMVQEJnpLDly-40" value="没有登记重试表,超网超时拿不到报文表示号" style="rounded=1;whiteSpace=wrap;html=1;" vertex="1" parent="1">
          <mxGeometry x="430" y="1110" width="120" height="60" as="geometry" />
        </mxCell>
        <mxCell id="2g9oOstZCMVQEJnpLDly-42" value="抛出异常" style="rounded=1;whiteSpace=wrap;html=1;" vertex="1" parent="1">
          <mxGeometry x="610" y="1110" width="120" height="60" as="geometry" />
        </mxCell>
      </root>
    </mxGraphModel>
  </diagram>
</mxfile>
